HIERARCHY
ROOT Hips
{
	OFFSET -0.179506 -22.333345 2.821913
	CHANNELS 6 Xposition Yposition Zposition Zrotation Yrotation Xrotation 
	JOINT LeftUpLeg
	{
		OFFSET 6.951974 -9.140623 -0.681533
		CHANNELS 3 Zrotation Yrotation Xrotation
		JOINT LeftLeg
		{
			OFFSET 3.427654 -37.519855 -0.449580
			CHANNELS 3 Zrotation Yrotation Xrotation
			JOINT LeftFoot
			{
				OFFSET -1.359570 -39.796059 -4.369333
				CHANNELS 3 Zrotation Yrotation Xrotation
				JOINT LeftToe
				{
					OFFSET 2.635814 -5.579078 11.928840
					CHANNELS 3 Zrotation Yrotation Xrotation
					End Site
					{
						OFFSET 0.000000 0.000000 0.000000
					}
				}
			}
		}
	}
	JOINT RightUpLeg
	{
		OFFSET -6.767048 -9.052170 -0.431982
		CHANNELS 3 Zrotation Yrotation Xrotation
		JOINT RightLeg
		{
			OFFSET -3.829005 -38.256897 -0.885003
			CHANNELS 3 Zrotation Yrotation Xrotation
			JOINT RightFoot
			{
				OFFSET 1.577377 -39.841461 -4.231180
				CHANNELS 3 Zrotation Yrotation Xrotation
				JOINT RightToe
				{
					OFFSET -2.537174 -4.814398 12.334795
					CHANNELS 3 Zrotation Yrotation Xrotation
					End Site
					{
						OFFSET 0.000000 0.000000 0.000000
					}
				}
			}
		}
	}
	JOINT Spine
	{
		OFFSET -0.253288 10.896323 -2.669631
		CHANNELS 3 Zrotation Yrotation Xrotation
		JOINT Spine1
		{
			OFFSET 0.548704 13.518043 0.109247
			CHANNELS 3 Zrotation Yrotation Xrotation
			JOINT Spine2
			{
				OFFSET 0.145701 5.292222 2.542457
				CHANNELS 3 Zrotation Yrotation Xrotation
				JOINT Neck
				{
					OFFSET -0.277840 21.387037 -4.285703
					CHANNELS 3 Zrotation Yrotation Xrotation
					JOINT Head
					{
						OFFSET 0.515184 6.496960 5.134897
						CHANNELS 3 Zrotation Yrotation Xrotation
						End Site
						{
							OFFSET 0.000000 0.000000 0.000000
						}
					}
				}
				JOINT LeftShoulder
				{
					OFFSET 7.884473 12.174932 -3.408961
					CHANNELS 3 Zrotation Yrotation Xrotation
					JOINT LeftArm
					{
						OFFSET 9.097692 3.046888 -0.886815
						CHANNELS 3 Zrotation Yrotation Xrotation
						JOINT LeftForeArm
						{
							OFFSET 25.961220 -1.277207 -2.745643
							CHANNELS 3 Zrotation Yrotation Xrotation
							JOINT LeftHand
							{
								OFFSET 24.923361 0.898606 -0.117091
								CHANNELS 3 Zrotation Yrotation Xrotation
								End Site
								{
									OFFSET 0.000000 0.000000 0.000000
								}
							}
						}
					}
				}
				JOINT RightShoulder
				{
					OFFSET -8.175920 11.883285 -3.861528
					CHANNELS 3 Zrotation Yrotation Xrotation
					JOINT RightArm
					{
						OFFSET -9.601238 3.255117 -0.914307
						CHANNELS 3 Zrotation Yrotation Xrotation
						JOINT RightForeArm
						{
							OFFSET -25.374195 -1.332924 -2.140099
							CHANNELS 3 Zrotation Yrotation Xrotation
							JOINT RightHand
							{
								OFFSET -25.529810 0.777228 -0.555919
								CHANNELS 3 Zrotation Yrotation Xrotation
								End Site
								{
									OFFSET 0.000000 0.000000 0.000000
								}
							}
						}
					}
				}
			}
		}
	}
}
MOTION
Frames: 7
Frame Time: 0.033333
32.807522 -26.624790 88.803558 -106.385172 -0.193429 88.907142 22.739767 8.309187 -15.369424 -8.201927 5.699330 48.296861 -3.090007 7.503943 -21.509576 nan nan nan -24.619072 -13.180207 -0.925826 4.227405 -6.885195 19.288244 5.532676 -3.177674 -17.808419 nan nan nan -2.100634 6.937948 5.576348 9.236488 -4.502344 13.039060 2.974911 2.361098 -9.183624 2.471811 -24.184558 19.110565 3.756893 -25.847336 6.819253 -13.507982 -5.925261 1.365865 -55.830098 -50.081621 27.889478 142.960653 -73.846093 -118.581496 -6.370000 -18.020811 0.570610 12.895880 1.665874 -2.854045 25.550903 7.658971 -7.366776 -48.853027 37.121513 -36.585993 0.268642 6.216116 -3.046675 
33.549679 -26.685038 88.606796 -106.216642 -0.084275 89.209631 22.903919 8.218677 -14.321276 -8.044181 5.872312 49.643939 -3.315020 7.621752 -21.797449 nan nan nan -24.127138 -12.882319 -2.004394 4.056483 -7.225633 19.899356 5.815478 -3.178982 -18.798913 nan nan nan -2.282440 6.586881 4.859593 9.341183 -4.546748 13.532509 3.040458 2.233481 -9.648068 2.061948 -23.792135 19.624581 3.974965 -25.647158 6.768354 -13.645914 -6.140163 1.472934 -56.114768 -50.463102 28.133210 143.671162 -73.325466 -119.557699 -6.500609 -17.929845 1.430062 13.241552 2.025553 -2.297605 25.581092 7.866814 -7.457934 -48.590962 36.807359 -36.429964 0.736366 6.390121 -2.776041 
34.265686 -26.771948 88.411438 -105.984673 -0.003817 89.452113 22.941046 8.116225 -13.228277 -7.835596 5.823368 50.786627 -3.325007 7.795261 -22.068753 nan nan nan -23.787723 -12.641543 -2.874164 3.981726 -7.576474 20.420716 6.099101 -3.021167 -19.851960 nan nan nan -2.379174 6.236520 4.270749 9.460255 -4.587539 14.035672 3.138911 1.790278 -10.176543 1.638185 -23.147301 20.060593 4.049553 -25.574534 6.626588 -13.958679 -6.062961 1.386411 -56.355741 -50.729790 28.270147 145.033510 -72.851299 -121.304152 -6.960987 -18.048429 2.316527 13.429880 2.485145 -1.545265 25.732041 8.283218 -7.536703 -48.410449 36.515325 -36.252616 0.982729 6.423314 -2.496854 
34.934917 -26.896257 88.183830 -105.638600 0.107063 89.596747 22.959386 8.006465 -12.050352 -7.721740 5.564885 51.658051 -3.401327 8.066637 -22.329861 nan nan nan -23.545230 -12.608785 -3.518005 3.994621 -7.736991 20.990925 5.928294 -2.979541 -21.031363 nan nan nan -2.746571 5.940040 3.691692 9.645197 -4.714883 14.417808 3.205915 1.991021 -10.249647 1.747116 -23.310712 19.772668 4.145889 -25.427845 6.919345 -13.971265 -6.663880 1.584625 -56.705252 -51.661514 28.636387 145.671382 -72.517434 -121.973221 -7.156236 -17.978600 3.094186 13.827917 2.329229 -1.584180 25.621616 8.285986 -7.569348 -47.917747 36.618435 -35.871871 0.924117 6.213888 -2.191683 
35.531872 -27.010809 87.987206 -105.225793 0.236144 89.701177 22.962808 8.050345 -10.781194 -7.513987 5.197152 52.215269 -3.459455 8.128384 -22.463830 nan nan nan -23.349474 -12.679858 -4.094150 3.943085 -7.990505 21.613699 5.694960 -2.852663 -21.901406 nan nan nan -2.868500 5.510642 3.257750 9.668573 -4.819615 14.594884 3.223314 1.962435 -10.456706 1.697965 -23.156578 19.965493 4.225183 -25.330838 7.126808 -14.119982 -7.031935 1.700049 -56.996389 -52.233225 28.944038 146.544631 -72.208190 -122.782879 -7.696816 -18.103557 3.790964 14.255203 2.463977 -1.221823 25.655315 8.192970 -7.673357 -47.685506 36.488645 -35.399622 1.607372 6.407252 -1.302833 
36.121601 -27.139988 87.804733 -104.694302 0.392959 89.736550 22.974861 8.169371 -9.519439 -7.281473 4.726543 52.565515 -3.246529 8.314555 -22.425965 nan nan nan -23.238909 -12.743550 -4.651687 3.961069 -8.307547 22.394293 5.392046 -2.815938 -22.435122 nan nan nan -2.797516 5.016075 2.997940 9.680825 -4.932397 14.857361 3.198740 1.656704 -10.818444 1.695566 -22.730321 20.020272 4.151652 -25.329605 7.352773 -14.302466 -7.068076 1.540603 -57.325421 -52.581572 29.398539 147.697399 -71.912778 -123.968243 -7.852829 -18.078180 3.789189 14.500035 2.726511 -0.752780 25.905917 8.362777 -7.324110 -47.644613 36.133594 -35.457840 1.357486 6.320667 -1.830311 
36.761169 -27.320494 87.633057 -103.961031 0.594339 89.821963 22.944692 8.073536 -8.445221 -7.021033 4.303258 52.639675 -3.045091 8.809489 -22.284043 nan nan nan -23.149109 -12.722875 -5.333646 4.091029 -8.710722 23.379431 5.091872 -2.994939 -22.855067 nan nan nan -2.678159 4.433470 2.807029 9.762790 -5.144330 15.195392 3.204326 1.347971 -11.302225 1.579739 -22.307937 19.976940 4.074712 -25.283917 7.602654 -14.479312 -7.045722 1.353833 -57.777273 -52.895027 29.897056 148.874867 -71.664573 -125.138617 -7.747285 -17.920467 3.543993 14.626195 2.973902 -0.369219 26.254766 8.836500 -6.925887 -47.633695 35.499481 -35.520151 0.498441 6.024823 -2.439211 
